<?xml version="1.0" standalone="no"?>
<!DOCTYPE svg PUBLIC "-//W3C//DTD SVG 20010904//EN"
 "http://www.w3.org/TR/2001/REC-SVG-20010904/DTD/svg10.dtd">
<svg version="1.0" xmlns="http://www.w3.org/2000/svg"
 width="762.000000pt" height="762.000000pt" viewBox="0 0 762.000000 762.000000"
 preserveAspectRatio="xMidYMid meet">
<metadata>
Created by potrace 1.14, written by Peter Selinger 2001-2017
</metadata>
<g transform="translate(0.000000,762.000000) scale(0.100000,-0.100000)"
fill="#000000" stroke="none">
<path d="M3555 5450 c-109 -9 -358 -50 -458 -75 -269 -68 -610 -223 -848 -385
-20 -14 -56 -38 -80 -55 -74 -50 -243 -189 -324 -267 -183 -173 -387 -449
-510 -688 -138 -271 -234 -579 -289 -935 -2 -16 -8 -50 -11 -74 l-7 -44 105 6
c400 25 706 14 922 -33 50 -10 134 -28 188 -40 54 -11 121 -30 149 -41 28 -11
52 -18 53 -17 1 2 10 28 20 58 58 181 216 416 372 556 48 44 90 81 93 84 3 3
35 27 73 53 92 66 314 170 416 197 245 64 504 64 768 0 111 -27 348 -150 480
-251 87 -66 273 -250 273 -270 0 -6 17 -33 38 -62 52 -71 114 -186 152 -282
18 -44 33 -81 35 -83 1 -1 19 5 41 14 40 17 75 26 274 70 129 28 215 40 375
51 163 12 452 8 598 -7 70 -7 130 -10 133 -8 4 5 -25 206 -40 273 -68 305 -83
357 -155 538 -70 174 -192 410 -266 512 -156 216 -310 391 -445 504 -30 25
-57 48 -60 51 -44 46 -243 192 -335 245 -106 62 -134 77 -252 135 -150 73
-296 129 -473 180 -134 38 -166 45 -330 76 -101 18 -521 27 -675 14z"/>
<path d="M3575 3581 c-240 -53 -397 -132 -591 -296 -163 -137 -309 -389 -389
-667 -19 -68 -21 -68 -126 -34 -90 30 -364 99 -474 120 -148 28 -279 39 -485
39 -208 0 -322 -10 -510 -43 -333 -59 -743 -206 -847 -302 -56 -52 -47 -138
19 -178 47 -29 77 -25 165 19 78 40 95 47 248 100 124 43 355 98 520 123 126
19 189 23 400 22 322 0 440 -16 790 -105 203 -52 186 -47 315 -84 273 -79 530
-138 705 -164 39 -5 108 -16 155 -23 125 -19 541 -16 705 5 277 36 470 81 960
222 196 56 394 100 575 127 122 19 187 22 415 22 290 -1 391 -12 635 -70 98
-23 299 -84 345 -104 11 -5 49 -21 85 -35 36 -15 83 -35 106 -46 99 -47 194
-4 194 88 0 51 -32 85 -131 140 -162 89 -491 204 -654 228 -22 4 -56 10 -75
15 -54 14 -291 39 -435 46 -202 10 -484 -18 -730 -72 -105 -23 -342 -92 -375
-109 -16 -8 -35 -15 -42 -15 -8 0 -29 50 -52 122 -22 67 -66 174 -97 237 -178
355 -492 594 -877 671 -125 24 -337 25 -447 1z"/>
</g>
</svg>
